{
	"asset":{
		"generator":"Khronos glTF Blender I/O v4.2.57",
		"version":"2.0"
	},
	"scene":0,
	"scenes":[
		{
			"name":"Scene",
			"nodes":[
				0,
				1,
				2,
				3,
				4
			]
		}
	],
	"nodes":[
		{
			"mesh":0,
			"name":"Cube"
		},
		{
			"mesh":1,
			"name":"Cylinder",
			"translation":[
				13.571571350097656,
				0.7943103313446045,
				0
			]
		},
		{
			"mesh":2,
			"name":"Cylinder.001",
			"translation":[
				-13.090206146240234,
				0.7943103313446045,
				-4.670268535614014
			]
		},
		{
			"mesh":3,
			"name":"Sphere",
			"translation":[
				-3.453646183013916,
				0,
				-9.53278636932373
			]
		},
		{
			"mesh":4,
			"name":"Cube.001",
			"translation":[
				0,
				1,
				10
			]
		}
	],
	"materials":[
		{
			"doubleSided":true,
			"name":"Material.002",
			"pbrMetallicRoughness":{
				"baseColorTexture":{
					"index":0
				},
				"metallicFactor":0,
				"roughnessFactor":0.5
			}
		}
	],
	"meshes":[
		{
			"name":"Cube",
			"primitives":[
				{
					"attributes":{
						"POSITION":0,
						"NORMAL":1,
						"TEXCOORD_0":2,
						"TANGENT":3
					},
					"indices":4,
					"material":0
				}
			]
		},
		{
			"name":"Cylinder",
			"primitives":[
				{
					"attributes":{
						"POSITION":5,
						"NORMAL":6,
						"TEXCOORD_0":7,
						"TANGENT":8
					},
					"indices":9,
					"material":0
				}
			]
		},
		{
			"name":"Cylinder.001",
			"primitives":[
				{
					"attributes":{
						"POSITION":10,
						"NORMAL":11,
						"TEXCOORD_0":12,
						"TANGENT":13
					},
					"indices":14,
					"material":0
				}
			]
		},
		{
			"name":"Sphere",
			"primitives":[
				{
					"attributes":{
						"POSITION":15,
						"NORMAL":16,
						"TEXCOORD_0":17,
						"TANGENT":18
					},
					"indices":19,
					"material":0
				}
			]
		},
		{
			"name":"Cube.001",
			"primitives":[
				{
					"attributes":{
						"POSITION":20,
						"NORMAL":21,
						"TEXCOORD_0":22,
						"TANGENT":23
					},
					"indices":24,
					"material":0
				}
			]
		}
	],
	"textures":[
		{
			"sampler":0,
			"source":0
		}
	],
	"images":[
		{
			"mimeType":"image/png",
			"name":"proto_grid",
			"uri":"proto_grid.png"
		}
	],
	"accessors":[
		{
			"bufferView":0,
			"componentType":5126,
			"count":24,
			"max":[
				18.700000762939453,
				0,
				14.699999809265137
			],
			"min":[
				-18.700000762939453,
				-2,
				-14.699999809265137
			],
			"type":"VEC3"
		},
		{
			"bufferView":1,
			"componentType":5126,
			"count":24,
			"type":"VEC3"
		},
		{
			"bufferView":2,
			"componentType":5126,
			"count":24,
			"type":"VEC2"
		},
		{
			"bufferView":3,
			"componentType":5126,
			"count":24,
			"type":"VEC4"
		},
		{
			"bufferView":4,
			"componentType":5123,
			"count":36,
			"type":"SCALAR"
		},
		{
			"bufferView":5,
			"componentType":5126,
			"count":207,
			"max":[
				1,
				2.6996378898620605,
				1
			],
			"min":[
				-1,
				-2.699638843536377,
				-1
			],
			"type":"VEC3"
		},
		{
			"bufferView":6,
			"componentType":5126,
			"count":207,
			"type":"VEC3"
		},
		{
			"bufferView":7,
			"componentType":5126,
			"count":207,
			"type":"VEC2"
		},
		{
			"bufferView":8,
			"componentType":5126,
			"count":207,
			"type":"VEC4"
		},
		{
			"bufferView":9,
			"componentType":5123,
			"count":372,
			"type":"SCALAR"
		},
		{
			"bufferView":10,
			"componentType":5126,
			"count":258,
			"max":[
				3.0870492458343506,
				3.1261563301086426,
				3.0870492458343506
			],
			"min":[
				-3.0870492458343506,
				-3.882575273513794,
				-3.0870492458343506
			],
			"type":"VEC3"
		},
		{
			"bufferView":11,
			"componentType":5126,
			"count":258,
			"type":"VEC3"
		},
		{
			"bufferView":12,
			"componentType":5126,
			"count":258,
			"type":"VEC2"
		},
		{
			"bufferView":13,
			"componentType":5126,
			"count":258,
			"type":"VEC4"
		},
		{
			"bufferView":14,
			"componentType":5123,
			"count":378,
			"type":"SCALAR"
		},
		{
			"bufferView":15,
			"componentType":5126,
			"count":1984,
			"max":[
				2.4564173221588135,
				1,
				2.456416606903076
			],
			"min":[
				-2.456416130065918,
				-1,
				-2.45641827583313
			],
			"type":"VEC3"
		},
		{
			"bufferView":16,
			"componentType":5126,
			"count":1984,
			"type":"VEC3"
		},
		{
			"bufferView":17,
			"componentType":5126,
			"count":1984,
			"type":"VEC2"
		},
		{
			"bufferView":18,
			"componentType":5126,
			"count":1984,
			"type":"VEC4"
		},
		{
			"bufferView":19,
			"componentType":5123,
			"count":2880,
			"type":"SCALAR"
		},
		{
			"bufferView":20,
			"componentType":5126,
			"count":24,
			"max":[
				1,
				3.190354824066162,
				1
			],
			"min":[
				-7.138026714324951,
				-1,
				-1
			],
			"type":"VEC3"
		},
		{
			"bufferView":21,
			"componentType":5126,
			"count":24,
			"type":"VEC3"
		},
		{
			"bufferView":22,
			"componentType":5126,
			"count":24,
			"type":"VEC2"
		},
		{
			"bufferView":23,
			"componentType":5126,
			"count":24,
			"type":"VEC4"
		},
		{
			"bufferView":24,
			"componentType":5123,
			"count":36,
			"type":"SCALAR"
		}
	],
	"bufferViews":[
		{
			"buffer":0,
			"byteLength":288,
			"byteOffset":0,
			"target":34962
		},
		{
			"buffer":0,
			"byteLength":288,
			"byteOffset":288,
			"target":34962
		},
		{
			"buffer":0,
			"byteLength":192,
			"byteOffset":576,
			"target":34962
		},
		{
			"buffer":0,
			"byteLength":384,
			"byteOffset":768,
			"target":34962
		},
		{
			"buffer":0,
			"byteLength":72,
			"byteOffset":1152,
			"target":34963
		},
		{
			"buffer":0,
			"byteLength":2484,
			"byteOffset":1224,
			"target":34962
		},
		{
			"buffer":0,
			"byteLength":2484,
			"byteOffset":3708,
			"target":34962
		},
		{
			"buffer":0,
			"byteLength":1656,
			"byteOffset":6192,
			"target":34962
		},
		{
			"buffer":0,
			"byteLength":3312,
			"byteOffset":7848,
			"target":34962
		},
		{
			"buffer":0,
			"byteLength":744,
			"byteOffset":11160,
			"target":34963
		},
		{
			"buffer":0,
			"byteLength":3096,
			"byteOffset":11904,
			"target":34962
		},
		{
			"buffer":0,
			"byteLength":3096,
			"byteOffset":15000,
			"target":34962
		},
		{
			"buffer":0,
			"byteLength":2064,
			"byteOffset":18096,
			"target":34962
		},
		{
			"buffer":0,
			"byteLength":4128,
			"byteOffset":20160,
			"target":34962
		},
		{
			"buffer":0,
			"byteLength":756,
			"byteOffset":24288,
			"target":34963
		},
		{
			"buffer":0,
			"byteLength":23808,
			"byteOffset":25044,
			"target":34962
		},
		{
			"buffer":0,
			"byteLength":23808,
			"byteOffset":48852,
			"target":34962
		},
		{
			"buffer":0,
			"byteLength":15872,
			"byteOffset":72660,
			"target":34962
		},
		{
			"buffer":0,
			"byteLength":31744,
			"byteOffset":88532,
			"target":34962
		},
		{
			"buffer":0,
			"byteLength":5760,
			"byteOffset":120276,
			"target":34963
		},
		{
			"buffer":0,
			"byteLength":288,
			"byteOffset":126036,
			"target":34962
		},
		{
			"buffer":0,
			"byteLength":288,
			"byteOffset":126324,
			"target":34962
		},
		{
			"buffer":0,
			"byteLength":192,
			"byteOffset":126612,
			"target":34962
		},
		{
			"buffer":0,
			"byteLength":384,
			"byteOffset":126804,
			"target":34962
		},
		{
			"buffer":0,
			"byteLength":72,
			"byteOffset":127188,
			"target":34963
		}
	],
	"samplers":[
		{
			"magFilter":9728,
			"minFilter":9984
		}
	],
	"buffers":[
		{
			"byteLength":127260,
			"uri":"test_level.bin"
		}
	]
}
